<?xml version="1.0" encoding="UTF-8"?>
<svg width="700pt" height="700pt" version="1.1" viewBox="0 0 700 700" xmlns="http://www.w3.org/2000/svg" xmlns:xlink="http://www.w3.org/1999/xlink">
 <defs>
  <symbol id="l" overflow="visible">
   <path d="m38.281-2.2812c-1.9688 1.0234-4.0273 1.793-6.1719 2.3125-2.1367 0.51953-4.3672 0.78125-6.6875 0.78125-6.9375 0-12.438-1.9375-16.5-5.8125-4.0547-3.8828-6.0781-9.1445-6.0781-15.781 0-6.6641 2.0234-11.938 6.0781-15.812 4.0625-3.875 9.5625-5.8125 16.5-5.8125 2.3203 0 4.5508 0.26172 6.6875 0.78125 2.1445 0.52344 4.2031 1.293 6.1719 2.3125v8.625c-1.9922-1.3633-3.9531-2.3594-5.8906-2.9844-1.9375-0.63281-3.9766-0.95312-6.1094-0.95312-3.8359 0-6.8516 1.2305-9.0469 3.6875-2.1875 2.4492-3.2812 5.8359-3.2812 10.156 0 4.293 1.0938 7.668 3.2812 10.125 2.1953 2.4609 5.2109 3.6875 9.0469 3.6875 2.1328 0 4.1719-0.31641 6.1094-0.95312 1.9375-0.63281 3.8984-1.6289 5.8906-2.9844z"/>
  </symbol>
  <symbol id="c" overflow="visible">
   <path d="m28.016-22.734c-0.875-0.41406-1.7461-0.71875-2.6094-0.90625-0.86719-0.19531-1.7344-0.29688-2.6094-0.29688-2.5742 0-4.5547 0.82422-5.9375 2.4688-1.3867 1.6484-2.0781 4.0078-2.0781 7.0781v14.391h-9.9844v-31.25h9.9844v5.1406c1.2891-2.0508 2.7656-3.5469 4.4219-4.4844 1.6641-0.9375 3.6602-1.4062 5.9844-1.4062 0.34375 0 0.70703 0.015625 1.0938 0.046875 0.39453 0.023437 0.96094 0.078125 1.7031 0.17188z"/>
  </symbol>
  <symbol id="a" overflow="visible">
   <path d="m35.984-15.703v2.8438h-23.344c0.23828 2.3438 1.082 4.1055 2.5312 5.2812 1.457 1.168 3.4883 1.75 6.0938 1.75 2.0938 0 4.2422-0.3125 6.4531-0.9375 2.207-0.625 4.4727-1.5664 6.7969-2.8281v7.7031c-2.3672 0.88672-4.7305 1.5586-7.0938 2.0156-2.3555 0.45703-4.7148 0.6875-7.0781 0.6875-5.6562 0-10.055-1.4375-13.188-4.3125-3.1367-2.875-4.7031-6.9062-4.7031-12.094 0-5.0938 1.5352-9.0977 4.6094-12.016 3.082-2.9258 7.3203-4.3906 12.719-4.3906 4.9062 0 8.832 1.4805 11.781 4.4375 2.9453 2.9609 4.4219 6.9141 4.4219 11.859zm-10.266-3.3281c0-1.8945-0.55469-3.4219-1.6562-4.5781-1.1055-1.1641-2.5547-1.75-4.3438-1.75-1.9297 0-3.4961 0.54688-4.7031 1.6406-1.2109 1.0859-1.9648 2.6484-2.2656 4.6875z"/>
  </symbol>
  <symbol id="h" overflow="visible">
   <path d="m18.812-14.062c-2.0859 0-3.6523 0.35547-4.7031 1.0625-1.0547 0.71094-1.5781 1.75-1.5781 3.125 0 1.2617 0.42188 2.25 1.2656 2.9688s2.0195 1.0781 3.5312 1.0781c1.875 0 3.4531-0.67188 4.7344-2.0156 1.2891-1.3516 1.9375-3.0469 1.9375-5.0781v-1.1406zm15.25-3.7656v17.828h-10.062v-4.625c-1.3438 1.8984-2.8555 3.2773-4.5312 4.1406-1.668 0.86328-3.7031 1.2969-6.1094 1.2969-3.2305 0-5.8555-0.94141-7.875-2.8281-2.0234-1.8945-3.0312-4.3477-3.0312-7.3594 0-3.6641 1.2578-6.3516 3.7812-8.0625 2.5195-1.707 6.4766-2.5625 11.875-2.5625h5.8906v-0.78125c0-1.582-0.625-2.7383-1.875-3.4688-1.25-0.73828-3.1953-1.1094-5.8281-1.1094-2.1484 0-4.1406 0.21484-5.9844 0.64062-1.8359 0.42969-3.543 1.0703-5.125 1.9219v-7.6094c2.1328-0.51953 4.2812-0.91406 6.4375-1.1875 2.1641-0.26953 4.3281-0.40625 6.4844-0.40625 5.6328 0 9.7031 1.1172 12.203 3.3438 2.5 2.2188 3.75 5.8281 3.75 10.828z"/>
  </symbol>
  <symbol id="g" overflow="visible">
   <path d="m15.703-40.125v8.875h10.297v7.1406h-10.297v13.25c0 1.4609 0.28516 2.4453 0.85938 2.9531 0.58203 0.51172 1.7266 0.76562 3.4375 0.76562h5.1406v7.1406h-8.5625c-3.9492 0-6.7461-0.82031-8.3906-2.4688-1.6484-1.6445-2.4688-4.4414-2.4688-8.3906v-13.25h-4.9688v-7.1406h4.9688v-8.875z"/>
  </symbol>
  <symbol id="b" overflow="visible">
   <path d="m26.062-26.672v-16.734h10.047v43.406h-10.047v-4.5156c-1.375 1.8438-2.8906 3.1953-4.5469 4.0469s-3.5742 1.2812-5.75 1.2812c-3.8555 0-7.0234-1.5312-9.5-4.5938-2.4688-3.0625-3.7031-7-3.7031-11.812 0-4.8203 1.2344-8.7578 3.7031-11.812 2.4766-3.0625 5.6445-4.5938 9.5-4.5938 2.1562 0 4.0664 0.43359 5.7344 1.2969 1.6641 0.86719 3.1875 2.2109 4.5625 4.0312zm-6.5938 20.234c2.1445 0 3.7812-0.78125 4.9062-2.3438s1.6875-3.832 1.6875-6.8125c0-2.9766-0.5625-5.25-1.6875-6.8125s-2.7617-2.3438-4.9062-2.3438c-2.1172 0-3.7344 0.78125-4.8594 2.3438s-1.6875 3.8359-1.6875 6.8125c0 2.9805 0.5625 5.25 1.6875 6.8125s2.7422 2.3438 4.8594 2.3438z"/>
  </symbol>
  <symbol id="f" overflow="visible">
   <path d="m21.422-6.4375c2.1445 0 3.7812-0.78125 4.9062-2.3438s1.6875-3.832 1.6875-6.8125c0-2.9766-0.5625-5.25-1.6875-6.8125s-2.7617-2.3438-4.9062-2.3438c-2.1367 0-3.7773 0.78906-4.9219 2.3594-1.1484 1.5742-1.7188 3.8398-1.7188 6.7969 0 2.9609 0.57031 5.2266 1.7188 6.7969 1.1445 1.5742 2.7852 2.3594 4.9219 2.3594zm-6.6406-20.234c1.3828-1.8203 2.9102-3.1641 4.5781-4.0312 1.6758-0.86328 3.6016-1.2969 5.7812-1.2969 3.8438 0 7 1.5312 9.4688 4.5938 2.4766 3.0547 3.7188 6.9922 3.7188 11.812 0 4.8125-1.2422 8.75-3.7188 11.812-2.4688 3.0625-5.625 4.5938-9.4688 4.5938-2.1797 0-4.1055-0.43359-5.7812-1.2969-1.668-0.86328-3.1953-2.207-4.5781-4.0312v4.5156h-9.9844v-43.406h9.9844z"/>
  </symbol>
  <symbol id="e" overflow="visible">
   <path d="m30.516-7.5938h-16.781l-2.6562 7.5938h-10.797l15.422-41.656h12.812l15.422 41.656h-10.797zm-14.109-7.7188h11.406l-5.6875-16.578z"/>
  </symbol>
  <symbol id="d" overflow="visible">
   <path d="m36.219-19.031v19.031h-10.047v-14.562c0-2.6953-0.0625-4.5547-0.1875-5.5781-0.11719-1.0195-0.32422-1.7734-0.625-2.2656-0.38672-0.64453-0.91797-1.1484-1.5938-1.5156-0.66797-0.36328-1.4297-0.54688-2.2812-0.54688-2.0859 0-3.7266 0.80859-4.9219 2.4219-1.1875 1.6055-1.7812 3.8281-1.7812 6.6719v15.375h-9.9844v-31.25h9.9844v4.5781c1.5078-1.8203 3.1094-3.1641 4.7969-4.0312 1.6953-0.86328 3.5664-1.2969 5.6094-1.2969 3.6133 0 6.3516 1.1094 8.2188 3.3281 1.875 2.2109 2.8125 5.4219 2.8125 9.6406z"/>
  </symbol>
  <symbol id="k" overflow="visible">
   <path d="m4.7969-31.25h9.9844v30.688c0 4.1875-1.0078 7.3789-3.0156 9.5781-2 2.207-4.9062 3.3125-8.7188 3.3125h-4.9375v-6.5469h1.7188c1.8945 0 3.1953-0.43359 3.9062-1.2969 0.70703-0.85547 1.0625-2.5391 1.0625-5.0469zm0-12.156h9.9844v8.1406h-9.9844z"/>
  </symbol>
  <symbol id="j" overflow="visible">
   <path d="m29.219-30.266v7.5781c-2.1484-0.88281-4.2148-1.5508-6.2031-2-1.9922-0.44531-3.8711-0.67188-5.6406-0.67188-1.8984 0-3.3047 0.24219-4.2188 0.71875-0.91797 0.46875-1.375 1.1992-1.375 2.1875 0 0.79297 0.34375 1.4023 1.0312 1.8281 0.69531 0.42969 1.9531 0.74609 3.7656 0.95312l1.75 0.25c5.1133 0.65625 8.5508 1.7305 10.312 3.2188 1.7695 1.4805 2.6562 3.8125 2.6562 7 0 3.3242-1.2305 5.8242-3.6875 7.5-2.4492 1.6797-6.1094 2.5156-10.984 2.5156-2.0625 0-4.1992-0.16797-6.4062-0.5-2.1992-0.32031-4.4609-0.80469-6.7812-1.4531v-7.5938c1.9883 0.96875 4.0234 1.6992 6.1094 2.1875 2.0938 0.48047 4.2227 0.71875 6.3906 0.71875 1.9453 0 3.4102-0.26953 4.3906-0.8125 0.98828-0.53906 1.4844-1.3438 1.4844-2.4062 0-0.88281-0.33984-1.5469-1.0156-1.9844-0.67969-0.4375-2.0312-0.77344-4.0625-1.0156l-1.75-0.23438c-4.4492-0.55078-7.5703-1.582-9.3594-3.0938-1.7812-1.5078-2.6719-3.7969-2.6719-6.8594 0-3.3125 1.1328-5.7656 3.4062-7.3594 2.2695-1.6016 5.75-2.4062 10.438-2.4062 1.8438 0 3.7734 0.14062 5.7969 0.42188 2.0312 0.27344 4.2383 0.71094 6.625 1.3125z"/>
  </symbol>
  <symbol id="i" overflow="visible">
   <path d="m5.25-41.656h10.734v15.203l15.484-15.203h12.469l-20.047 19.719 22.125 21.938h-13.453l-16.578-16.406v16.406h-10.734z"/>
  </symbol>
 </defs>
 <g>
  <path d="m624.29 297.14v217.14h-320v-217.14zm-365.71-22.859v262.86c0 12.621 10.234 22.855 22.859 22.855h365.71c12.621 0 22.855-10.234 22.855-22.855v-262.86c0-12.625-10.234-22.855-22.855-22.855h-365.71c-12.625 0-22.859 10.23-22.859 22.855z" fill-rule="evenodd"/>
  <path d="m75.715 514.29v-388.57h297.14v80c0 12.625 10.234 22.855 22.859 22.855s22.855-10.23 22.855-22.855v-102.86c0-12.621-10.23-22.855-22.855-22.855h-342.86c-12.621 0-22.855 10.234-22.855 22.855v434.29c0 12.621 10.234 22.855 22.855 22.855h160c12.625 0 22.859-10.234 22.859-22.855 0-12.625-10.234-22.859-22.859-22.859z" fill-rule="evenodd"/>
  <path d="m327.14 91.43c0-51.344-46.766-91.43-102.86-91.43-56.09 0-102.86 40.086-102.86 91.43v80.945c0 12.625 10.23 22.855 22.855 22.855s22.859-10.23 22.859-22.855v-80.945c0-24.398 24.867-45.715 57.141-45.715 32.273 0 57.145 21.316 57.145 45.715v80.945c0 12.625 10.23 22.855 22.855 22.855s22.859-10.23 22.859-22.855z" fill-rule="evenodd"/>
  <path d="m510 366.66c0 25.246-20.469 45.715-45.715 45.715s-45.715-20.469-45.715-45.715v-23.805c0-12.621-10.23-22.855-22.855-22.855s-22.859 10.234-22.859 22.855v23.805c0 50.496 40.938 91.43 91.43 91.43 50.496 0 91.43-40.934 91.43-91.43v-23.805c0-12.621-10.234-22.855-22.859-22.855-12.621 0-22.855 10.234-22.855 22.855z" fill-rule="evenodd"/>
  <use x="30" y="731.429687" xlink:href="#l"/>
  <use x="71.9375" y="731.429687" xlink:href="#c"/>
  <use x="100.117188" y="731.429687" xlink:href="#a"/>
  <use x="138.871094" y="731.429687" xlink:href="#h"/>
  <use x="177.433594" y="731.429687" xlink:href="#g"/>
  <use x="204.75" y="731.429687" xlink:href="#a"/>
  <use x="243.503906" y="731.429687" xlink:href="#b"/>
  <use x="304.300781" y="731.429687" xlink:href="#f"/>
  <use x="402.347656" y="731.429687" xlink:href="#e"/>
  <use x="446.574219" y="731.429687" xlink:href="#d"/>
  <use x="487.253906" y="731.429687" xlink:href="#b"/>
  <use x="528.160156" y="731.429687" xlink:href="#c"/>
  <use x="556.339844" y="731.429687" xlink:href="#a"/>
  <use x="595.09375" y="731.429687" xlink:href="#k"/>
  <use x="614.683594" y="731.429687" xlink:href="#j"/>
  <use x="668.589844" y="731.429687" xlink:href="#i"/>
 </g>
</svg>
