<?xml version="1.0" encoding="UTF-8"?>
<svg width="700pt" height="700pt" version="1.1" viewBox="0 0 700 700" xmlns="http://www.w3.org/2000/svg">
 <g>
  <path d="m560 184.86c0-12.863-8.7188-23.473-19.965-24.965v-0.17969h-1.9297c0.078125-0.99219 0.11719-2 0.11719-3.0156 0-19.441-14.219-35.199-31.758-35.199-3.2773 0-6.4414 0.54688-9.4141 1.5703-4.168-17.129-18.281-29.734-35.051-29.734-17.898 0-32.77 14.359-35.75 33.246-16.945 4.293-29.582 21.102-29.582 41.18 0 23.328 17.062 42.242 38.109 42.242h105.26v-0.17969c11.246-1.4883 19.965-12.098 19.965-24.965z"/>
  <path d="m490 369.71c0-25.73-18.68-46.945-42.777-49.926v-0.35938h-4.1367c0.16406-1.9883 0.24609-4 0.24609-6.0352 0-38.883-30.469-70.402-68.055-70.402-7.0234 0-13.801 1.1016-20.176 3.1445-8.9219-34.258-39.164-59.465-75.102-59.465-38.352 0-70.219 28.711-76.609 66.488-36.305 8.5859-63.391 42.203-63.391 82.359 0 46.66 36.562 84.484 81.668 84.484h225.55v-0.35938c24.098-2.9805 42.777-24.195 42.777-49.93z"/>
 </g>
</svg>
