<?xml version="1.0" encoding="UTF-8"?>
<svg width="700pt" height="700pt" version="1.1" viewBox="0 0 700 700" xmlns="http://www.w3.org/2000/svg">
 <g fill-rule="evenodd">
  <path d="m600.83 151.67c0-20.113-7.9805-39.41-22.215-53.621-14.211-14.234-33.508-22.215-53.621-22.215h-350c-20.113 0-39.41 7.9805-53.621 22.215-14.234 14.211-22.215 33.508-22.215 53.621v280c0 20.113 7.9805 39.41 22.215 53.621 14.211 14.234 33.508 22.215 53.621 22.215h350c20.113 0 39.41-7.9805 53.621-22.215 14.234-14.211 22.215-33.508 22.215-53.621zm-35 0v280c0 10.828-4.293 21.211-11.969 28.863-7.6523 7.6758-18.035 11.969-28.863 11.969h-350c-10.828 0-21.211-4.293-28.863-11.969-7.6758-7.6523-11.969-18.035-11.969-28.863v-280c0-10.828 4.293-21.211 11.969-28.863 7.6523-7.6758 18.035-11.969 28.863-11.969h350c10.828 0 21.211 4.293 28.863 11.969 7.6758 7.6523 11.969 18.035 11.969 28.863z"/>
  <path d="m449.17 46.668v81.668c0 9.6602 7.8398 17.5 17.5 17.5 9.6602 0 17.5-7.8398 17.5-17.5v-81.668c0-9.6602-7.8398-17.5-17.5-17.5-9.6602 0-17.5 7.8398-17.5 17.5z"/>
  <path d="m215.83 46.668v81.668c0 9.6602 7.8398 17.5 17.5 17.5 9.6602 0 17.5-7.8398 17.5-17.5v-81.668c0-9.6602-7.8398-17.5-17.5-17.5-9.6602 0-17.5 7.8398-17.5 17.5z"/>
  <path d="m116.67 250.83h466.67c9.6602 0 17.5-7.8398 17.5-17.5 0-9.6602-7.8398-17.5-17.5-17.5h-466.67c-9.6602 0-17.5 7.8398-17.5 17.5 0 9.6602 7.8398 17.5 17.5 17.5z"/>
 </g>
</svg>
