<?xml version="1.0" encoding="UTF-8"?>
<svg width="700pt" height="700pt" version="1.1" viewBox="0 0 700 700" xmlns="http://www.w3.org/2000/svg">
 <path d="m198.74 65.883c-34.559 0-62.859 28.297-62.859 62.859v302.52c0 34.559 28.297 62.859 62.859 62.859h302.48c34.559 0 62.891-28.297 62.891-62.859v-302.52c0-34.559-28.332-62.859-62.891-62.859zm0 32.973h302.48c16.879 0 29.918 13.004 29.918 29.887v302.52c0 16.879-13.035 29.918-29.918 29.918l-302.48-0.003907c-16.883 0-29.918-13.035-29.918-29.918v-302.52c0-16.879 13.035-29.887 29.918-29.887zm129.61 78.395c-4.3906 0.011719-8.5938 1.7695-11.68 4.8906l-86.922 86.18v0.003907c-3.1055 3.0898-4.8516 7.293-4.8516 11.676s1.7461 8.5859 4.8516 11.676l86.922 86.309v0.003906c3.1055 3.0938 7.3164 4.8242 11.699 4.8047 4.3828-0.019531 8.5781-1.7852 11.656-4.9062 3.0898-3.1094 4.8125-7.3203 4.7891-11.703-0.023437-4.3828-1.7969-8.5781-4.9219-11.652l-58.48-57.996h177.15c4.3906 0.015625 8.6094-1.7188 11.711-4.8242 3.1055-3.1055 4.8438-7.3203 4.8242-11.711-0.015624-4.3672-1.7656-8.5508-4.8672-11.629s-7.2969-4.7969-11.668-4.7773h-177.28l58.613-58.129h-0.003907c3.1172-3.0742 4.8828-7.2578 4.9062-11.637 0.023438-4.375-1.6914-8.5781-4.7734-11.688-3.0859-3.1211-7.2891-4.8789-11.676-4.8906z" fill-rule="evenodd"/>
</svg>
