<?xml version="1.0" encoding="UTF-8"?>
<svg width="700pt" height="700pt" version="1.1" viewBox="0 0 700 700" xmlns="http://www.w3.org/2000/svg">
 <g>
  <path d="m463.26 63.234c22.094-22.09 57.91-22.09 80 0l23.504 23.504c22.09 22.09 22.09 57.906 0 80l-188.01 188.01c-3.5703 3.5664-8.2031 5.8867-13.199 6.5977l-82.254 11.754c-7.2695 1.0352-14.605-1.4102-19.801-6.6016-5.1914-5.1953-7.6367-12.527-6.5977-19.801l11.75-82.254c0.71484-4.9961 3.0312-9.6289 6.5977-13.199z"/>
  <path d="m163.33 163.33c0-12.887 10.449-23.332 23.336-23.332h140c12.887 0 23.332-10.445 23.332-23.332s-10.445-23.336-23.332-23.336h-140c-38.66 0-70 31.34-70 70v280c0 38.664 31.34 70 70 70h280c38.66 0 70-31.336 70-70v-140c0-12.887-10.449-23.332-23.336-23.332s-23.332 10.445-23.332 23.332v140c0 12.887-10.445 23.336-23.332 23.336h-280c-12.887 0-23.336-10.449-23.336-23.336z"/>
 </g>
</svg>
